HIERARCHY
ROOT root
{
	OFFSET	0	13.1	24.9
	CHANNELS 6  Xposition Yposition Zposition Xrotation Yrotation Zrotation
	JOINT spine_1
	{
		OFFSET	0	9.99999	0
		CHANNELS 3  Xrotation Yrotation Zrotation
		JOINT spine_2
		{
			OFFSET	0	112	-10
			CHANNELS 3  Xrotation Yrotation Zrotation
			JOINT spine_3
			{
				OFFSET	0	206.5	19.3
				CHANNELS 3  Xrotation Yrotation Zrotation
				JOINT spine_4
				{
					OFFSET	0	110.4	14.6
					CHANNELS 3  Xrotation Yrotation Zrotation
					JOINT neck_1
					{
						OFFSET	0	71.8	-50.3
						CHANNELS 3  Xrotation Yrotation Zrotation
						JOINT neck_2
						{
							OFFSET	0	86.2	-25.8
							CHANNELS 3  Xrotation Yrotation Zrotation
							JOINT head_ee
							{
								OFFSET	0	179.8	-8.7
								CHANNELS 3  Xrotation Yrotation Zrotation
								End Site
								{
									OFFSET	1	0	0
								}
							}
						}
					}
					JOINT left_clavicle
					{
						OFFSET	-43.2	22.4	-70.8
						CHANNELS 3  Xrotation Yrotation Zrotation
						JOINT left_shoulder
						{
							OFFSET	-93.9	-5.79999	48.7
							CHANNELS 3  Xrotation Yrotation Zrotation
							JOINT left_elbow
							{
								OFFSET	-291.4	-30.8	15.2
								CHANNELS 3  Xrotation Yrotation Zrotation
								JOINT left_lowarm_twist
								{
									OFFSET	-110.7	-3.89999	13.6
									CHANNELS 3  Xrotation Yrotation Zrotation
									JOINT left_hand
									{
										OFFSET	-110.7	-3.89999	13.6
										CHANNELS 3  Xrotation Yrotation Zrotation
										JOINT left_ee
										{
											OFFSET	-80.8	-5.10001	12.1
											CHANNELS 3  Xrotation Yrotation Zrotation
											End Site
											{
												OFFSET	1	0	0
											}
										}
									}
								}
							}
						}
					}
					JOINT right_clavicle
					{
						OFFSET	43.2	22.4	-70.8
						CHANNELS 3  Xrotation Yrotation Zrotation
						JOINT right_shoulder
						{
							OFFSET	93.9	-5.79999	48.7
							CHANNELS 3  Xrotation Yrotation Zrotation
							JOINT right_elbow
							{
								OFFSET	291.4	-30.8	15.2
								CHANNELS 3  Xrotation Yrotation Zrotation
								JOINT right_lowarm_twist
								{
									OFFSET	110.7	-3.89999	13.6
									CHANNELS 3  Xrotation Yrotation Zrotation
									JOINT right_hand
									{
										OFFSET	110.7	-3.89999	13.6
										CHANNELS 3  Xrotation Yrotation Zrotation
										JOINT right_ee
										{
											OFFSET	80.8	-5.10001	12.1
											CHANNELS 3  Xrotation Yrotation Zrotation
											End Site
											{
												OFFSET	1	0	0
											}
										}
									}
								}
							}
						}
					}
				}
			}
		}
	}
	JOINT left_hip
	{
		OFFSET	-82.8	-127.5	0.300001
		CHANNELS 3  Xrotation Yrotation Zrotation
		JOINT left_knee
		{
			OFFSET	-28.2	-396.7	2.2
			CHANNELS 3  Xrotation Yrotation Zrotation
			JOINT left_ankle
			{
				OFFSET	-11.7	-411.3	35.4
				CHANNELS 3  Xrotation Yrotation Zrotation
				JOINT left_toes
				{
					OFFSET	0	-60	-88.6
					CHANNELS 3  Xrotation Yrotation Zrotation
					JOINT left_foot_ee
					{
						OFFSET	-22.5	-16.5	-42.2
						CHANNELS 3  Xrotation Yrotation Zrotation
						End Site
						{
							OFFSET	1	0	0
						}
					}
				}
			}
		}
	}
	JOINT right_hip
	{
		OFFSET	82.8	-127.5	0.300001
		CHANNELS 3  Xrotation Yrotation Zrotation
		JOINT right_knee
		{
			OFFSET	28.2	-396.7	2.2
			CHANNELS 3  Xrotation Yrotation Zrotation
			JOINT right_ankle
			{
				OFFSET	11.7	-411.3	35.4
				CHANNELS 3  Xrotation Yrotation Zrotation
				JOINT right_toes
				{
					OFFSET	0	-60	-88.6
					CHANNELS 3  Xrotation Yrotation Zrotation
					JOINT right_foot_ee
					{
						OFFSET	22.5	-16.5	-42.2
						CHANNELS 3  Xrotation Yrotation Zrotation
						End Site
						{
							OFFSET	1	0	0
						}
					}
				}
			}
		}
	}
}
MOTION
Frames: 9
Frame Time: 0.02
855.002 756.963 -1592.79 -164.217 75.1451 160.249 0.357365 0.222313 3.43893 0.363943 0.00316686 3.44609 0.36647 -0.700431 3.37425 0.35062 -0.159072 3.44243 -5.1339 6.99993 -11.3811 -4.56382 21.3766 -10.5075 -0.0 0.0 -0.0 -1.84204 -13.7448 -5.53158 -26.2904 -31.4151 62.5252 0.749393 -20.3663 0.134611 -71.5114 -6.73904 5.31326 1.21037 -8.38689 4.61618 -0.0 0.0 -0.0 10.0444 -17.8739 -17.8787 -15.3418 19.1137 -58.9636 1.87854 42.9361 -0.738821 41.758 0.443847 5.19945 3.2468 11.1374 -17.4172 0.0 0.0 0.0 24.5406 -14.6044 1.91902 -6.9665 0.223513 1.04513 -16.3992 -6.07667 2.54537 6.98877 -0.0 -0.0 -0.0 0.0 -0.0 14.2006 -32.7251 2.76618 -10.9939 -0.294255 -1.65895 13.9526 22.4739 2.25813 -16.461 0.0 0.0 0.0 0.0 0.0 
851.937 759.047 -1591.39 -163.949 75.1603 159.889 0.431524 0.185221 3.45035 0.438145 -0.0345757 3.45514 0.438229 -0.735059 3.37631 0.422375 -0.192942 3.44992 -4.78047 7.40039 -9.95563 -4.29644 21.0679 -9.02743 -0.0 0.0 -0.0 -1.59985 -13.5583 -4.99121 -26.2638 -30.9291 61.7678 0.781407 -21.1606 0.145961 -71.3166 -6.71415 5.31213 1.05471 -7.89037 3.77426 -0.0 0.0 -0.0 10.0879 -16.6068 -18.1487 -16.3827 19.0371 -59.1547 1.74583 40.8508 -0.650194 41.8248 0.447566 5.20715 3.05431 9.24229 -16.9311 0.0 0.0 0.0 24.5535 -14.6295 1.89251 -7.4884 0.235112 1.12438 -17.0154 -6.1465 2.64291 6.5096 -0.0 -0.0 -0.0 0.0 -0.0 14.163 -33.0197 3.08198 -11.2356 -0.297126 -1.69593 13.7278 22.5064 2.2248 -16.6209 0.0 0.0 0.0 0.0 0.0 
844.698 752.96 -1593.44 -163.286 74.5567 159.119 0.512725 0.230548 3.42629 0.519255 0.0121879 3.43401 0.522063 -0.679964 3.36612 0.506281 -0.140142 3.43118 -4.35358 7.84083 -8.22755 -3.96127 20.5912 -7.2383 -0.0 0.0 -0.0 -1.24658 -13.2433 -4.20019 -26.1672 -30.3659 61.0349 0.796227 -21.5255 0.151354 -71.2076 -6.70022 5.31146 0.859086 -7.17834 2.75413 -0.0 0.0 -0.0 10.3386 -14.5297 -18.8943 -17.0269 19.2984 -59.5147 1.59769 38.357 -0.555735 41.9414 0.454073 5.22056 2.81161 6.63488 -16.3791 0.0 0.0 0.0 24.5612 -14.6731 2.00374 -8.45953 0.254771 1.27211 -17.9473 -6.24916 2.79045 5.82744 -0.0 -0.0 -0.0 0.0 -0.0 13.8468 -32.8909 2.92156 -11.4964 -0.300048 -1.73585 13.393 22.8859 2.18233 -16.688 0.0 0.0 0.0 0.0 0.0 
838.708 757.514 -1589.85 -162.681 74.6438 158.669 0.625656 0.310676 3.37906 0.632003 0.095154 3.39197 0.639594 -0.583209 3.34286 0.624006 -0.0482639 3.39296 -3.42211 8.54086 -5.40197 -3.13664 19.7219 -4.353 -0.0 0.0 -0.0 -0.947141 -13.0632 -3.54321 -26.1664 -29.4518 59.7723 0.821228 -22.1369 0.160652 -71.0207 -6.67635 5.31025 0.59149 -6.32728 1.30761 -0.0 0.0 -0.0 10.3454 -11.4603 -19.3266 -18.0 19.3975 -59.7178 1.40329 34.8031 -0.439826 42.1088 0.46347 5.23981 2.48869 3.0733 -15.6264 0.0 0.0 0.0 24.6343 -14.7401 2.16236 -8.81985 0.261428 1.327 -19.2265 -6.5817 2.9957 4.87994 -0.0 -0.0 -0.0 0.0 -0.0 13.4697 -32.6055 3.05889 -11.8639 -0.303858 -1.7921 12.8252 23.4355 2.10728 -16.788 0.0 0.0 0.0 0.0 0.0 
835.665 763.049 -1586.51 -159.965 75.1773 155.665 0.781965 0.436088 3.25746 0.787838 0.228038 3.27857 0.802645 -0.420844 3.25946 0.787835 0.0989206 3.285 -4.47011 8.74422 -4.80458 -4.25798 19.661 -3.5057 -0.0 0.0 -0.0 -0.463817 -12.797 -2.48967 -25.3765 -28.8951 59.6163 0.864378 -23.1798 0.177275 -70.7533 -6.64219 5.30838 0.260947 -5.902 -0.742169 -0.0 0.0 -0.0 10.4847 -7.61248 -20.0404 -19.4894 19.4592 -60.0864 1.18807 30.4773 -0.323664 42.3417 0.476632 5.26654 2.43322 1.40499 -15.9228 0.0 0.0 0.0 24.7316 -14.8867 2.40304 -9.34746 0.270552 1.40744 -21.0495 -7.0923 3.28942 4.25038 -0.0 -0.0 -0.0 0.0 -0.0 13.5666 -31.9333 3.39565 -11.5296 -0.300408 -1.74093 14.0221 24.3823 2.31442 -16.939 0.0 0.0 0.0 0.0 0.0 
834.956 764.002 -1583.25 -159.943 76.1281 155.784 0.757831 0.610216 3.08635 0.763036 0.412684 3.11889 0.78735 -0.208932 3.1391 0.773717 0.289204 3.13274 -4.20633 8.85523 -4.25652 -4.00411 19.443 -2.96709 -0.0 0.0 -0.0 -0.292542 -12.7857 -2.12727 -24.8519 -28.0218 59.2242 0.893886 -23.8837 0.189057 -70.5307 -6.61377 5.30671 0.174001 -5.46102 -1.14141 -0.0 0.0 -0.0 10.5499 -6.39614 -20.293 -20.295 19.7269 -60.3219 1.11286 28.866 -0.286425 42.6728 0.495536 5.30445 2.29128 -0.209363 -15.5829 0.0 0.0 0.0 24.8955 -15.1567 2.63097 -10.0134 0.28101 1.5091 -22.6678 -7.81846 3.55567 3.69097 -0.0 -0.0 -0.0 0.0 -0.0 13.6276 -31.1113 3.50785 -11.9345 -0.304549 -1.80292 14.2298 25.6136 2.37874 -17.3067 0.0 0.0 0.0 0.0 0.0 
829.003 759.782 -1580.15 -155.543 76.6151 151.227 0.753229 0.585016 2.93196 0.757924 0.397346 2.96321 0.780157 -0.193713 2.98343 0.767846 0.279681 2.97661 -3.84384 8.92412 -3.62026 -3.65114 19.0716 -2.35839 -0.0 0.0 -0.0 0.124627 -12.8352 -1.25448 -23.6873 -27.106 59.3487 0.93766 -24.914 0.20714 -70.2138 -6.57332 5.30413 0.0735067 -4.83676 -1.55384 -0.0 0.0 -0.0 10.6054 -5.38723 -20.5005 -21.4823 20.0386 -60.5739 1.00999 26.579 -0.238561 43.1466 0.522966 5.3585 2.11039 -2.21198 -15.1186 0.0 0.0 0.0 24.6749 -14.9524 2.43316 -10.9651 0.293902 1.65455 -24.5946 -8.66597 3.87418 3.02946 -0.0 -0.0 -0.0 0.0 -0.0 13.7262 -29.9321 3.66919 -12.0378 -0.305536 -1.81873 14.5838 27.3966 2.48532 -17.8146 0.0 0.0 0.0 0.0 0.0 
819.433 759.607 -1577.84 -153.083 77.6337 148.882 0.748892 0.589766 2.90753 0.753504 0.403639 2.93912 0.775882 -0.183011 2.96104 0.763762 0.286718 2.95281 -3.47996 9.04575 -2.70503 -3.3047 18.5746 -1.44737 -0.0 0.0 -0.0 0.251596 -12.9248 -0.997449 -22.4623 -26.3204 59.5946 0.99841 -26.3157 0.233405 -70.0202 -6.5486 5.30244 -0.0810438 -4.23056 -2.33756 -0.0 0.0 -0.0 10.6027 -3.90668 -20.6271 -22.0588 20.2674 -60.7397 0.962593 25.4933 -0.217758 44.1227 0.580884 5.46914 1.89659 -4.40086 -14.4937 0.0 0.0 0.0 24.2912 -14.6339 2.32032 -11.1712 0.296376 1.68608 -22.5009 -8.90023 3.54997 2.08325 -0.0 -0.0 -0.0 0.0 -0.0 13.5623 -28.3485 3.38963 -12.1894 -0.306931 -1.84194 15.2735 26.1165 2.55485 -18.6182 0.0 0.0 0.0 0.0 0.0 
817.666 754.145 -1571.19 -151.888 77.6839 147.73 0.759373 0.604861 2.85918 0.763822 0.421777 2.89183 0.786741 -0.155332 2.91828 0.774989 0.307306 2.90622 -2.9126 9.19767 -1.41916 -2.75517 17.8186 -0.170048 -0.0 0.0 -0.0 0.176977 -12.9639 -1.15903 -21.2019 -25.1446 59.8844 1.07427 -28.0193 0.268044 -69.7863 -6.51876 5.30029 -0.298022 -3.31942 -3.41026 -0.0 0.0 -0.0 10.5268 -2.21284 -20.605 -22.7724 20.3141 -60.9246 0.89672 23.9509 -0.190206 45.554 0.669217 5.6296 1.59638 -7.45298 -13.6086 0.0 0.0 0.0 23.4868 -14.1684 2.05576 -11.4709 0.29977 1.73193 -19.0765 -9.24855 3.0138 0.735827 -0.0 -0.0 -0.0 0.0 -0.0 13.5035 -26.0759 3.51538 -12.3894 -0.308679 -1.87259 16.288 24.1869 2.65308 -19.766 0.0 0.0 0.0 0.0 0.0 
